PathFileType	4	(X/Y/Z)	Patient5_TMGait_0pt45_1_right_06.trc.trc
DataRate	CameraRate	NumFrames	NumMarkers	Units	OrigDataRate	OrigDataStartFrame	OrigNumFrames
63.636363636364	63.636363636364	4	32	mm	63.636363636364	124	       141
Frame#	Time	R.ASIS			L.ASIS			Chest			R.Shoulder			Neck			L.Shoulder			L.Elbow			L.Wrist			R.Elbow			R.Wrist			L.Thigh.Superior			L.Thigh.Lateral			L.Thigh.Inferior			L.Patella			L.Shank.Superior			L.Shank.Lateral			L.Shank.Inferior			L.Heel			L.Midfoot.Lateral			L.Midfoot.Superior			L.Toe			R.Thigh.Superior			R.Thigh.Lateral			R.Thigh.Inferior			R.Patella			R.Shank.Superior			R.Shank.Lateral			R.Shank.Inferior			R.Heel			R.Midfoot.Lateral			R.Midfoot.Superior			R.Toe			
		X1	Y1	Z1	X2	Y2	Z2	X3	Y3	Z3	X4	Y4	Z4	X5	Y5	Z5	X6	Y6	Z6	X7	Y7	Z7	X8	Y8	Z8	X9	Y9	Z9	X10	Y10	Z10	X11	Y11	Z11	X12	Y12	Z12	X13	Y13	Z13	X14	Y14	Z14	X15	Y15	Z15	X16	Y16	Z16	X17	Y17	Z17	X18	Y18	Z18	X19	Y19	Z19	X20	Y20	Z20	X21	Y21	Z21	X22	Y22	Z22	X23	Y23	Z23	X24	Y24	Z24	X25	Y25	Z25	X26	Y26	Z26	X27	Y27	Z27	X28	Y28	Z28	X29	Y29	Z29	X30	Y30	Z30	X31	Y31	Z31	X32	Y32	Z32	

124	11.552857142857	1030.938669429483	978.730749481953	547.028755124738	1022.491887696668	950.823169917279	304.356867542036	1071.644137147808	1430.221641800331	451.950728388841	955.530351393985	1483.938793552896	612.098941592966	947.508297518297	1550.180680363993	430.440014456534	1024.415976270093	1502.012137033772	254.030984280553	987.056937853216	1182.865743886359	111.037508899238	1124.190176307352	928.313271227984	122.335058079123	841.448978497161	1168.487865019768	737.826633807034	1049.161849156253	969.365807406274	697.493420815184	996.459943925939	722.593891365016	306.231924684938	902.682889103031	669.881963180334	267.336656148156	956.267458192819	597.057376756575	328.873075042853	915.541169801362	480.685031651772	333.916739289277	845.450942003805	394.773972349307	356.994804319771	760.345376531419	345.481742518962	281.845262959295	783.797116029896	284.209905647322	368.814479481221	600.991873603577	73.002821668335	368.937614046360	689.499328724091	38.657983063365	314.262167179227	788.781123788955	90.698972906106	358.327408273546	888.580846052955	43.850156991466	371.323368441119	1084.167681034489	755.311136853465	574.215703825822	1017.047361359475	665.324341554823	630.933029422609	1107.769290998310	628.928215515415	558.241975935611	1129.255463088155	533.735454336635	592.961497086465	1103.832704266562	428.867616068973	555.805291045518	1036.814576856333	352.065063401191	633.308117853089	1105.979983373759	288.748529078406	556.529201581151	1014.502024901432	59.470998289605	522.007764739987	1092.795708048023	26.476195540193	594.009084034785	1195.728029264825	97.117827432777	582.826640564098	1300.966188980066	57.259437586628	580.915148381418	
125	11.568571428571	1033.763671651447	975.724583765830	549.024345706559	1024.423627073441	949.624549928705	306.481571452119	1072.950138507314	1428.998201866551	454.831093275014	958.575960680035	1481.765113476002	616.405753064264	947.841937563471	1548.421668902992	434.908848888462	1022.156591862342	1500.538190748750	257.249009426325	981.896787378206	1181.954070539832	113.606347444502	1117.666943647273	926.545500869905	121.485909050156	848.258591021087	1165.360690266256	743.243604273555	1055.339937282084	966.400738616466	698.977086035152	997.448156355715	721.389578445410	307.001034559655	903.165599408693	669.003624385193	268.515858726833	957.280890453829	595.700603275934	328.846684930291	915.604965687043	477.947420039661	333.090650874165	843.939370339474	393.432470333713	356.427707888006	757.114555028158	346.248730168031	281.754680798441	780.424280800710	283.933627830716	368.146429831312	594.386361986456	74.835787672730	368.350530715093	682.647133965348	39.281807652641	313.966418543384	782.345965412254	90.952818720902	357.631034204227	881.374340558031	43.923771529097	371.250974309177	1083.881352301507	750.724677423926	574.861461443133	1014.547507902496	661.394682838970	630.383583128908	1104.351707115332	624.163883285583	556.920319897599	1124.282348469984	528.772827217717	590.249528650022	1098.451464077153	424.664864413783	552.626545669259	1032.010609208771	347.779694150652	630.371049921798	1100.368466887491	284.575083418982	552.801369042635	1007.985677213573	55.720585729484	518.198391940520	1085.669684892655	24.437404128208	591.449626737913	1189.517503903181	93.201703649361	577.569755115980	1294.393669350049	51.914127116784	577.271998685386	
126	11.584285714286	1036.260349389067	973.517832004431	551.385719743238	1026.269193964657	948.736479092459	308.937511334234	1074.579442339691	1428.182427045086	457.912350139707	961.827196908404	1480.120161492887	620.743698780663	948.665059923721	1547.203925521259	439.385048816260	1020.465685992614	1499.480422641436	260.616798756355	976.779701003297	1181.416154080438	116.641403961193	1110.821540146414	925.040184026009	120.716592067349	855.670739979390	1162.558951376912	748.476484021501	1062.015948819306	963.717735872427	700.374948740744	998.903347204618	720.539717554238	308.180696918337	904.427339899697	668.258848236024	269.844590866550	959.125731183845	594.614789901327	329.158655466654	916.632290866733	475.273205633876	332.439387892912	843.287103272325	392.147543057505	355.901487862313	754.794076252962	347.216404618184	281.648838077331	777.716536775784	283.949819076034	367.637818330456	588.068615721783	77.438701868634	367.709776179716	675.944624226538	40.301414908553	313.666040277670	776.246266840125	91.247490940291	356.894157654909	874.215486548238	43.949596586575	371.194015035410	1083.899719552378	747.689564440929	575.564978416210	1013.157663690049	658.908673693374	630.340807873995	1101.902160175912	621.090746651366	555.897640123452	1120.635528269906	525.499804122288	587.951655998260	1093.995503392415	421.822782817923	550.165360791333	1028.300961254455	345.048429011379	628.479350804158	1095.282695017492	281.756821333786	549.852598183667	1001.327684645827	53.271503243155	515.447054316452	1078.529834751610	23.583923777957	589.770966774784	1183.243243868448	90.575138151103	573.250695523651	1287.756898165446	47.931262493083	574.415577791435	
127	11.600000000000	1038.376322838200	972.193342990271	554.085920978776	1027.945825587639	948.315134388460	311.702103597852	1076.520615419234	1427.872102778686	461.159677985918	965.255732925065	1479.151409297428	625.064326357689	949.996813066683	1546.658406366909	443.805664280796	1019.477031641105	1499.016755248606	264.104562295554	971.742141838218	1181.468195797738	120.152054237054	1103.618227136498	923.985523234772	120.120885035213	863.581494291842	1160.282198930289	753.448872987031	1069.144166063688	961.545342636538	701.684521310645	1000.814221628838	720.173359431065	309.749917393870	906.506768844392	667.737721720487	271.269879337880	961.858453031930	593.929343646666	329.784548393711	918.795784185167	472.775637068409	331.899348390912	843.657665197315	391.003398466088	355.341022408249	753.568210612781	348.452321173973	281.455873642460	775.830393870497	284.361984152148	367.230240796935	582.171456634224	81.061877967128	367.002749668585	669.449098186567	41.857014982601	313.359051732273	770.595545441235	91.564009877786	356.098910248520	867.114451172035	43.912314136316	371.157154526634	1084.280744364321	746.192030289258	576.549799566475	1012.859326713352	657.790632529902	630.913943886239	1100.570719966432	619.627954661895	555.476508603497	1118.352724681103	523.783815466318	586.432184385849	1090.541666542319	420.234292857626	548.692064739517	1025.570293596211	343.760408964732	627.774280022376	1090.756934694155	280.187361776370	547.935633999044	994.578421460885	52.006213980991	513.781213396613	1071.456810124952	23.562618360393	588.879943633583	1176.909595169257	89.060340494250	570.148111770020	1281.087798536483	45.272102285041	572.445099486304	
